<?xml version="1.0" encoding="UTF-8" standalone="no"?>
<!DOCTYPE svg PUBLIC "-//W3C//DTD SVG 1.1//EN" "http://www.w3.org/Graphics/SVG/1.1/DTD/svg11.dtd">
<svg xmlns:dc="http://purl.org/dc/elements/1.1/" xmlns:xl="http://www.w3.org/1999/xlink" version="1.1" xmlns="http://www.w3.org/2000/svg" viewBox="633.5 445.5 50 50" width="50" height="50">
  <defs/>
  <metadata> Produced by OmniGraffle 7.8 test 
    <dc:date>2018-06-17 01:05:55 +0000</dc:date>
  </metadata>
  <g id="Canvas_1" fill-opacity="1" stroke-dasharray="none" stroke="none" stroke-opacity="1" fill="none">
    <title>Canvas 1</title>
    <g id="Canvas_1: Layer 1">
      <title>Layer 1</title>
      <g id="Graphic_9">
        <title>Language</title>
        <path d="M 658.48 450.5 C 647.44 450.5 638.5 459.46 638.5 470.5 C 638.5 481.54 647.44 490.5 658.48 490.5 C 669.54 490.5 678.5 481.54 678.5 470.5 C 678.5 459.46 669.54 450.5 658.48 450.5 Z M 672.34 462.5 L 666.44 462.5 C 665.8 460 664.88 457.6 663.68 455.38 C 667.36 456.64 670.42 459.2 672.34 462.5 Z M 658.5 454.58 C 660.16 456.98 661.46 459.64 662.32 462.5 L 654.68 462.5 C 655.54 459.64 656.84 456.98 658.5 454.58 Z M 643.02 474.5 C 642.7 473.22 642.5 471.88 642.5 470.5 C 642.5 469.12 642.7 467.78 643.02 466.5 L 649.78 466.5 C 649.62 467.82 649.5 469.14 649.5 470.5 C 649.5 471.86 649.62 473.18 649.78 474.5 L 643.02 474.5 Z M 644.66 478.5 L 650.56 478.5 C 651.2 481 652.12 483.4 653.32 485.62 C 649.64 484.36 646.58 481.82 644.66 478.5 Z M 650.56 462.5 L 644.66 462.5 C 646.58 459.18 649.64 456.64 653.32 455.38 C 652.12 457.6 651.2 460 650.56 462.5 Z M 658.5 486.42 C 656.84 484.02 655.54 481.36 654.68 478.5 L 662.32 478.5 C 661.46 481.36 660.16 484.02 658.5 486.42 Z M 663.18 474.5 L 653.82 474.5 C 653.64 473.18 653.5 471.86 653.5 470.5 C 653.5 469.14 653.64 467.8 653.82 466.5 L 663.18 466.5 C 663.36 467.8 663.5 469.14 663.5 470.5 C 663.5 471.86 663.36 473.18 663.18 474.5 Z M 663.68 485.62 C 664.88 483.4 665.8 481 666.44 478.5 L 672.34 478.5 C 670.42 481.8 667.36 484.36 663.68 485.62 Z M 667.22 474.5 C 667.38 473.18 667.5 471.86 667.5 470.5 C 667.5 469.14 667.38 467.82 667.22 466.5 L 673.98 466.5 C 674.3 467.78 674.5 469.12 674.5 470.5 C 674.5 471.88 674.3 473.22 673.98 474.5 L 667.22 474.5 Z" fill="#7b23aa"/>
      </g>
    </g>
  </g>
</svg>
