<?xml version="1.0" encoding="UTF-8" standalone="no"?>
<!DOCTYPE svg PUBLIC "-//W3C//DTD SVG 1.1//EN" "http://www.w3.org/Graphics/SVG/1.1/DTD/svg11.dtd">
<svg xmlns:dc="http://purl.org/dc/elements/1.1/" xmlns:xl="http://www.w3.org/1999/xlink" version="1.1" xmlns="http://www.w3.org/2000/svg" viewBox="783 880.5 50 50" width="50" height="50">
  <defs/>
  <metadata> Produced by OmniGraffle 7.8 test 
    <dc:date>2018-06-17 01:15:03 +0000</dc:date>
  </metadata>
  <g id="Canvas_1" fill-opacity="1" stroke-dasharray="none" stroke="none" stroke-opacity="1" fill="none">
    <title>Canvas 1</title>
    <g id="Canvas_1: Layer 1">
      <title>Layer 1</title>
      <g id="Graphic_4">
        <rect x="788" y="885.5" width="40" height="40" fill="white"/>
      </g>
      <g id="Graphic_10">
        <path d="M 813.5 905.1324 L 813.5 921.7676 C 813.5 922.596 814.1716 923.2676 815 923.2676 C 815.8284 923.2676 816.5 922.596 816.5 921.7676 L 816.5 905.1324 C 816.5 904.304 815.8284 903.6324 815 903.6324 C 814.1716 903.6324 813.5 904.304 813.5 905.1324 Z M 815 893.9324 L 810.8 905.1324 L 819.2 905.1324 Z M 813.5955 893.4057 L 809.3955 904.6057 L 808.6355 906.6324 L 810.8 906.6324 L 819.2 906.6324 L 821.3645 906.6324 L 820.6045 904.6057 L 816.4045 893.4057 L 815 889.6604 Z M 816.4045 894.4591 L 813.5955 894.4591 L 817.7955 905.6591 L 819.2 903.6324 L 810.8 903.6324 L 812.2045 905.6591 Z" fill="black"/>
      </g>
      <g id="Graphic_11">
        <path d="M 801.5 905.8676 L 801.5 889.2324 C 801.5 888.404 800.8284 887.7324 800 887.7324 C 799.1716 887.7324 798.5 888.404 798.5 889.2324 L 798.5 905.8676 C 798.5 906.696 799.1716 907.3676 800 907.3676 C 800.8284 907.3676 801.5 906.696 801.5 905.8676 Z M 800 917.0676 L 804.2 905.8676 L 795.8 905.8676 Z M 801.4045 917.5943 L 805.6045 906.3943 L 806.3645 904.3676 L 804.2 904.3676 L 795.8 904.3676 L 793.6355 904.3676 L 794.3955 906.3943 L 798.5955 917.5943 L 800 921.3396 Z M 798.5955 916.5409 L 801.4045 916.5409 L 797.2045 905.3409 L 795.8 907.3676 L 804.2 907.3676 L 802.7955 905.3409 Z" fill="black"/>
      </g>
    </g>
  </g>
</svg>
