<?xml version="1.0" encoding="UTF-8" standalone="no"?>
<!DOCTYPE svg PUBLIC "-//W3C//DTD SVG 1.1//EN" "http://www.w3.org/Graphics/SVG/1.1/DTD/svg11.dtd">
<svg xmlns:dc="http://purl.org/dc/elements/1.1/" xmlns:xl="http://www.w3.org/1999/xlink" version="1.1" xmlns="http://www.w3.org/2000/svg" viewBox="633.5 445.5 50 50" width="50" height="50">
  <defs/>
  <metadata> Produced by OmniGraffle 7.8 test 
    <dc:date>2018-06-17 01:08:28 +0000</dc:date>
  </metadata>
  <g id="Canvas_1" fill-opacity="1" stroke-dasharray="none" stroke="none" stroke-opacity="1" fill="none">
    <title>Canvas 1</title>
    <g id="Canvas_1: Layer 1">
      <title>Layer 1</title>
      <g id="Graphic_18">
        <title>Help</title>
        <path d="M 658.5 450.5 C 647.46 450.5 638.5 459.46 638.5 470.5 C 638.5 481.54 647.46 490.5 658.5 490.5 C 669.54 490.5 678.5 481.54 678.5 470.5 C 678.5 459.46 669.54 450.5 658.5 450.5 Z M 660.5 484.5 L 656.5 484.5 L 656.5 480.5 L 660.5 480.5 L 660.5 484.5 Z M 664.64 469 L 662.84 470.84 C 661.4 472.3 660.5 473.5 660.5 476.5 L 656.5 476.5 L 656.5 475.5 C 656.5 473.3 657.4 471.3 658.84 469.84 L 661.32 467.32 C 662.06 466.6 662.5 465.6 662.5 464.5 C 662.5 462.3 660.7 460.5 658.5 460.5 C 656.3 460.5 654.5 462.3 654.5 464.5 L 650.5 464.5 C 650.5 460.08 654.08 456.5 658.5 456.5 C 662.92 456.5 666.5 460.08 666.5 464.5 C 666.5 466.26 665.78 467.86 664.64 469 Z" fill="#3da8aa"/>
      </g>
    </g>
  </g>
</svg>
