<?xml version="1.0" encoding="UTF-8" standalone="no"?>
<!DOCTYPE svg PUBLIC "-//W3C//DTD SVG 1.1//EN" "http://www.w3.org/Graphics/SVG/1.1/DTD/svg11.dtd">
<svg xmlns:dc="http://purl.org/dc/elements/1.1/" xmlns:xl="http://www.w3.org/1999/xlink" version="1.1" xmlns="http://www.w3.org/2000/svg" viewBox="639.1818 443 38.636365 55" width="38.636365" height="55">
  <defs/>
  <metadata> Produced by OmniGraffle 7.8 test 
    <dc:date>2018-06-17 01:08:06 +0000</dc:date>
  </metadata>
  <g id="Canvas_1" fill-opacity="1" stroke-dasharray="none" stroke="none" stroke-opacity="1" fill="none">
    <title>Canvas 1</title>
    <g id="Canvas_1: Layer 1">
      <title>Layer 1</title>
      <g id="Graphic_17">
        <title>Perm Device Info</title>
        <path d="M 660.54545 460.2727 L 656.45455 460.2727 L 656.45455 464.36364 L 660.54545 464.36364 L 660.54545 460.2727 Z M 660.54545 468.45455 L 656.45455 468.45455 L 656.45455 480.7273 L 660.54545 480.7273 L 660.54545 468.45455 Z M 668.7273 448.02045 L 648.2727 448 C 646.0227 448 644.1818 449.8409 644.1818 452.0909 L 644.1818 488.9091 C 644.1818 491.1591 646.0227 493 648.2727 493 L 668.7273 493 C 670.9773 493 672.8182 491.1591 672.8182 488.9091 L 672.8182 452.0909 C 672.8182 449.8409 670.9773 448.02045 668.7273 448.02045 Z M 668.7273 484.8182 L 648.2727 484.8182 L 648.2727 456.1818 L 668.7273 456.1818 L 668.7273 484.8182 Z" fill="#ff7e79"/>
      </g>
    </g>
  </g>
</svg>
