<?xml version="1.0" encoding="UTF-8" standalone="no"?>
<!DOCTYPE svg PUBLIC "-//W3C//DTD SVG 1.1//EN" "http://www.w3.org/Graphics/SVG/1.1/DTD/svg11.dtd">
<svg xmlns:dc="http://purl.org/dc/elements/1.1/" xmlns:xl="http://www.w3.org/1999/xlink" version="1.1" xmlns="http://www.w3.org/2000/svg" viewBox="633.5 445.5 50 50" width="50" height="50">
  <defs/>
  <metadata> Produced by OmniGraffle 7.8 test 
    <dc:date>2018-06-17 01:07:18 +0000</dc:date>
  </metadata>
  <g id="Canvas_1" fill-opacity="1" stroke-dasharray="none" stroke="none" stroke-opacity="1" fill="none">
    <title>Canvas 1</title>
    <g id="Canvas_1: Layer 1">
      <title>Layer 1</title>
      <g id="Group_12">
        <title>Waterfowl</title>
        <g id="Graphic_15">
          <path d="M 643.28195 451.3101 C 641.0923 451.3101 639.31554 453.0906 639.31554 455.27977 L 639.31554 485.7178 C 639.31554 487.907 641.0923 489.68746 643.28195 489.68746 L 673.7221 489.68746 C 675.9077 489.68746 677.68446 487.907 677.68446 485.7178 L 677.68446 455.27977 C 677.68446 453.0906 675.9077 451.3101 673.7221 451.3101 Z" fill="white"/>
        </g>
        <g id="Graphic_14">
          <path d="M 673.7241 450.5 L 643.284 450.5 C 640.64105 450.5 638.5 452.6406 638.5 455.283 L 638.5 485.717 C 638.5 488.35534 640.64105 490.5 643.284 490.5 L 673.7241 490.5 C 676.363 490.5 678.5 488.35534 678.5 485.717 L 678.5 455.283 C 678.5 452.6406 676.363 450.5 673.7241 450.5 Z" fill="#fffc00"/>
        </g>
        <g id="Graphic_13">
          <path d="M 645.7286 474.1629 L 643.6523 472.7628 C 652.261 470.1973 657.5509 470.1973 657.5509 470.1973 C 661.1773 470.1973 664.314 469.1776 663.1079 467.06125 C 661.89775 464.94896 661.89775 459.06125 666.72625 459.3607 C 670.0572 459.3607 670.3567 462.52914 670.3567 462.52914 C 670.0977 463.6986 674.4769 464.60905 674.4769 464.60905 C 675.2297 465.0582 673.8698 465.6652 673.8698 465.6652 C 667.2241 465.20794 667.8271 466.87107 667.8271 466.87107 C 667.6774 468.3157 669.9075 469.1776 669.9075 469.1776 C 673.716 470.65053 677.5327 482.8468 661.6306 481.67734 C 655.40175 481.4143 650.4114 478.5413 650.4114 478.5413 C 644.70864 475.93935 642.4421 475.3324 642.4421 475.3324 Z" fill="white"/>
        </g>
      </g>
    </g>
  </g>
</svg>
