<?xml version="1.0" encoding="UTF-8" standalone="no"?>
<!DOCTYPE svg PUBLIC "-//W3C//DTD SVG 1.1//EN" "http://www.w3.org/Graphics/SVG/1.1/DTD/svg11.dtd">
<svg xmlns:dc="http://purl.org/dc/elements/1.1/" xmlns:xl="http://www.w3.org/1999/xlink" version="1.1" xmlns="http://www.w3.org/2000/svg" viewBox="633.5 445.50405 49.99999 49.9919" width="49.99999" height="49.9919">
  <defs/>
  <metadata> Produced by OmniGraffle 7.8 test 
    <dc:date>2018-06-17 01:04:33 +0000</dc:date>
  </metadata>
  <g id="Canvas_1" fill-opacity="1" stroke-dasharray="none" stroke="none" stroke-opacity="1" fill="none">
    <title>Canvas 1</title>
    <g id="Canvas_1: Layer 1">
      <title>Layer 1</title>
      <g id="Group_2">
        <title>Wheelchair-accessible</title>
        <g id="Graphic_7">
          <path d="M 643.2801 451.31125 C 641.09226 451.31125 639.3169 453.0947 639.3169 455.28253 L 639.3169 485.7102 C 639.3169 487.89803 641.09226 489.6815 643.2801 489.6815 L 673.7199 489.6815 C 675.9118 489.6815 677.6952 487.89803 677.6952 485.7102 L 677.6952 455.28253 C 677.6952 453.0947 675.9118 451.31125 673.7199 451.31125 Z" fill="white"/>
        </g>
        <g id="Graphic_6">
          <path d="M 643.2801 490.49595 C 640.6434 490.49595 638.5 488.35663 638.5 485.70776 L 638.5 455.28415 C 638.5 452.6474 640.6434 450.50405 643.2801 450.50405 L 673.7199 450.50405 C 676.3607 450.50405 678.5 452.6474 678.5 455.28415 L 678.5 485.70776 C 678.5 488.35663 676.3607 490.49595 673.7199 490.49595 Z" fill="#004dd6"/>
        </g>
        <g id="Graphic_5">
          <path d="M 655.3096 460.22885 C 656.7938 460.22885 657.9868 459.01967 657.9868 457.55167 C 657.9868 456.0675 656.7938 454.8745 655.3096 454.8745 C 653.8335 454.8745 652.63245 456.0675 652.63245 457.55167 C 652.63245 459.01967 653.8335 460.22885 655.3096 460.22885 Z" fill="white"/>
        </g>
        <g id="Graphic_4">
          <path d="M 657.0316 483.2138 C 652.6397 483.2138 649.0769 479.65903 649.0769 475.2591 C 649.0769 472.8488 650.1688 470.7014 651.8673 469.2415 L 651.7258 466.7544 C 648.8787 468.5297 646.9699 471.65984 646.9699 475.2591 C 646.9699 480.8116 651.471 485.32074 657.0316 485.32074 C 661.1242 485.32074 664.6223 482.8579 666.1955 479.3517 L 664.78005 476.90097 C 664.0238 480.49616 660.85325 483.2138 657.0316 483.2138 Z" fill="white"/>
        </g>
        <g id="Graphic_3">
          <path d="M 672.8407 478.4745 L 670.9845 478.4745 L 666.4632 470.66945 C 666.1801 470.1882 665.67865 469.92534 665.1691 469.90916 L 658.46805 469.90916 L 658.3993 467.8831 L 663.2684 467.8831 C 663.93565 467.84264 664.4816 467.3371 664.4816 466.66176 C 664.4816 465.99045 663.9518 465.4728 663.2684 465.44854 L 658.25776 465.44854 L 658.09195 463.14746 C 657.9949 461.7401 656.7857 460.6361 655.35815 460.71697 C 653.9306 460.7938 652.8508 462.0232 652.9236 463.4467 L 653.38464 471.5753 C 653.51 472.99884 654.703 474.0139 656.1144 474.00986 L 664.797 474.00986 L 668.3477 480.1528 C 668.6349 480.62597 669.1808 480.88884 669.7268 480.8848 L 669.7308 480.90906 L 672.8407 480.90906 C 673.508 480.8686 674.0539 480.3631 674.0539 479.68774 C 674.0539 479.0164 673.52416 478.4988 672.8407 478.4745 Z" fill="white"/>
        </g>
      </g>
    </g>
  </g>
</svg>
