<?xml version="1.0" encoding="UTF-8" standalone="no"?>
<!DOCTYPE svg PUBLIC "-//W3C//DTD SVG 1.1//EN" "http://www.w3.org/Graphics/SVG/1.1/DTD/svg11.dtd">
<svg xmlns:dc="http://purl.org/dc/elements/1.1/" xmlns:xl="http://www.w3.org/1999/xlink" version="1.1" xmlns="http://www.w3.org/2000/svg" viewBox="308 989 44.285714 50" width="44.285714" height="50">
  <defs/>
  <metadata> Produced by OmniGraffle 7.8 test 
    <dc:date>2018-06-17 01:03:50 +0000</dc:date>
  </metadata>
  <g id="Canvas_1" fill-opacity="1" stroke-dasharray="none" stroke="none" stroke-opacity="1" fill="none">
    <title>Canvas 1</title>
    <g id="Canvas_1: Layer 1">
      <title>Layer 1</title>
      <g id="Graphic_3">
        <title>Timer</title>
        <path d="M 335.85714 994 L 324.42857 994 L 324.42857 997.8095 L 335.85714 997.8095 L 335.85714 994 Z M 328.2381 1018.7619 L 332.0476 1018.7619 L 332.0476 1007.3333 L 328.2381 1007.3333 L 328.2381 1018.7619 Z M 343.53333 1006.1714 L 346.2381 1003.4667 C 345.41905 1002.4952 344.5238 1001.581 343.5524 1000.781 L 340.8476 1003.4857 C 337.89524 1001.1238 334.18095 999.7143 330.14286 999.7143 C 320.6762 999.7143 313 1007.3905 313 1016.8571 C 313 1026.3238 320.65714 1034 330.14286 1034 C 339.62857 1034 347.2857 1026.3238 347.2857 1016.8571 C 347.2857 1012.819 345.8762 1009.1048 343.53333 1006.1714 Z M 330.14286 1030.1905 C 322.77143 1030.1905 316.80952 1024.2286 316.80952 1016.8571 C 316.80952 1009.4857 322.77143 1003.5238 330.14286 1003.5238 C 337.5143 1003.5238 343.4762 1009.4857 343.4762 1016.8571 C 343.4762 1024.2286 337.5143 1030.1905 330.14286 1030.1905 Z" fill="#00a642"/>
      </g>
    </g>
  </g>
</svg>
