<?xml version="1.0" encoding="UTF-8" standalone="no"?>
<!DOCTYPE svg PUBLIC "-//W3C//DTD SVG 1.1//EN" "http://www.w3.org/Graphics/SVG/1.1/DTD/svg11.dtd">
<svg xmlns:dc="http://purl.org/dc/elements/1.1/" xmlns:xl="http://www.w3.org/1999/xlink" version="1.1" xmlns="http://www.w3.org/2000/svg" viewBox="633.5 445.5 50 50" width="50" height="50">
  <defs/>
  <metadata> Produced by OmniGraffle 7.8 test 
    <dc:date>2018-06-17 01:06:16 +0000</dc:date>
  </metadata>
  <g id="Canvas_1" fill-opacity="1" stroke-dasharray="none" stroke="none" stroke-opacity="1" fill="none">
    <title>Canvas 1</title>
    <g id="Canvas_1: Layer 1">
      <title>Layer 1</title>
      <g id="Graphic_10">
        <title>Face</title>
        <path d="M 662.75 478.83333 C 661.75 479.96667 660.15 480.5 658.5 480.5 C 656.85 480.5 655.25 479.96667 654.0167 479 C 653.65 478.71667 653.1333 478.78333 652.85 479.15 C 652.5667 479.51667 652.6333 480.03333 653 480.31667 C 654.5167 481.51667 656.4833 482.16667 658.5 482.16667 C 660.5167 482.16667 662.4833 481.51667 664.0167 480.33333 C 664.3833 480.05 664.45 479.53333 664.1667 479.16667 C 663.8833 478.78333 663.35 478.73333 662.75 478.83333 Z M 654.4167 471.33333 L 654.4167 471.33333 C 654.4167 470.41283 653.5872 469.66667 652.6667 469.66667 C 651.7462 469.66667 651 470.41283 651 471.33333 C 651 472.25383 651.7462 473 652.6667 473 C 653.5872 473 654.3333 472.25383 654.4167 471.33333 Z M 658.5833 450.5 C 647.45 450.5 638.5 459.45 638.5 470.5 C 638.5 481.55 647.45 490.5 658.5 490.5 C 669.55 490.5 678.5 481.55 678.5 470.5 C 678.5 459.45 669.55 450.5 658.5833 450.5 Z M 671.9167 475.5 L 671.9167 475.5 C 669.95 481.43333 664.65 485.96667 658.3667 485.96667 C 652.0667 485.96667 646.7667 481.43333 644.9667 475.18333 C 642.9833 475 641.4167 473.21667 641.4167 470.98333 C 641.4167 468.86667 642.8333 467.13333 644.7 466.81667 C 648.1833 464.38333 651.0333 461 651.9167 458.4 L 651.9167 458.38333 C 653.7667 462.76667 662.0167 467.03333 671.2333 466.81667 L 671.7333 466.76667 C 673.8667 466.76667 675.5833 468.66667 675.5833 471 C 675.5833 473.3 673.8833 475.18333 671.9167 475.5 Z M 666.0833 471.33333 L 666.0833 471.33333 C 666.0833 470.41283 665.2538 469.66667 664.3333 469.66667 C 663.4128 469.66667 662.6667 470.41283 662.6667 471.33333 C 662.6667 472.25383 663.4128 473 664.3333 473 C 665.2538 473 666 472.25383 666.0833 471.33333 Z" fill="#ff7c00"/>
      </g>
    </g>
  </g>
</svg>
