<?xml version="1.0" encoding="UTF-8" standalone="no"?>
<!DOCTYPE svg PUBLIC "-//W3C//DTD SVG 1.1//EN" "http://www.w3.org/Graphics/SVG/1.1/DTD/svg11.dtd">
<svg xmlns:dc="http://purl.org/dc/elements/1.1/" xmlns:xl="http://www.w3.org/1999/xlink" version="1.1" xmlns="http://www.w3.org/2000/svg" viewBox="903.8072 248 93.38568 89.5" width="93.38568" height="89.5">
  <defs/>
  <metadata> Produced by OmniGraffle 7.8 test 
    <dc:date>2018-06-17 18:01:29 +0000</dc:date>
  </metadata>
  <g id="Canvas_1" fill-opacity="1" stroke-dasharray="none" stroke="none" stroke-opacity="1" fill="none">
    <title>Canvas 1</title>
    <g id="Canvas_1: Layer 1">
      <title>Layer 1</title>
      <g id="Graphic_18">
        <path d="M 952.4414 333.71164 C 952.4797 333.5653 952.5 333.41226 952.5 333.2547 L 952.5 317.37873 L 987.1928 317.37873 C 992.7157 317.37873 997.1928 313.13846 997.1928 307.90783 L 997.1928 257.4709 C 997.1928 252.24027 992.7157 248 987.1928 248 L 913.8072 248 C 908.2843 248 903.8072 252.24027 903.8072 257.4709 L 903.8072 307.90783 C 903.8072 313.13846 908.2843 317.37873 913.8072 317.37873 L 948.5 317.37873 L 948.5 333.2547 C 948.5 333.41226 948.5203 333.5653 948.5586 333.71164 L 930.9407 333.71164 C 929.8362 333.71164 928.9407 334.5597 928.9407 335.60582 C 928.9407 336.65195 929.8362 337.5 930.9407 337.5 L 970.0593 337.5 C 971.1638 337.5 972.0593 336.65195 972.0593 335.60582 C 972.0593 334.5597 971.1638 333.71164 970.0593 333.71164 Z" fill="#1b215d"/>
      </g>
      <g id="Graphic_10">
        <path d="M 950.4999 276.5117 C 946.7744 268.53533 936.214 270.3664 936.1581 279.59693 C 936.1022 284.78908 941.2001 286.61988 944.5615 288.6767 C 947.8108 290.65827 950.1637 293.36723 950.4999 294.4709 C 950.836 293.36723 955.442 289.65236 958.4673 287.6708 C 961.7727 285.48863 964.8976 284.63857 964.8416 279.59693 C 964.7857 270.29113 954.0294 268.81144 950.4999 276.5117 Z" stroke="white" stroke-linecap="round" stroke-linejoin="round" stroke-width="4"/>
      </g>
    </g>
  </g>
</svg>
