<?xml version="1.0" encoding="UTF-8" standalone="no"?>
<!DOCTYPE svg PUBLIC "-//W3C//DTD SVG 1.1//EN" "http://www.w3.org/Graphics/SVG/1.1/DTD/svg11.dtd">
<svg xmlns:dc="http://purl.org/dc/elements/1.1/" xmlns:xl="http://www.w3.org/1999/xlink" version="1.1" xmlns="http://www.w3.org/2000/svg" viewBox="566 865 30 27" width="30" height="27">
  <defs/>
  <metadata> Produced by OmniGraffle 7.8 test 
    <dc:date>2018-06-24 03:41:11 +0000</dc:date>
  </metadata>
  <g id="Canvas_1" fill-opacity="1" stroke-dasharray="none" stroke="none" stroke-opacity="1" fill="none">
    <title>Canvas 1</title>
    <g id="Canvas_1: Layer 1">
      <title>Layer 1</title>
      <g id="Graphic_68">
        <title>Print</title>
        <path d="M 591.5 872.5 L 570.5 872.5 C 568.01 872.5 566 874.51 566 877 L 566 886 L 572 886 L 572 892 L 590 892 L 590 886 L 596 886 L 596 877 C 596 874.51 593.99 872.5 591.5 872.5 Z M 587 889 L 575 889 L 575 881.5 L 587 881.5 L 587 889 Z M 591.5 878.5 C 590.675 878.5 590 877.825 590 877 C 590 876.175 590.675 875.5 591.5 875.5 C 592.325 875.5 593 876.175 593 877 C 593 877.825 592.325 878.5 591.5 878.5 Z M 590 865 L 572 865 L 572 871 L 590 871 L 590 865 Z" fill="black"/>
      </g>
    </g>
  </g>
</svg>

