<?xml version="1.0" encoding="UTF-8" standalone="no"?>
<!DOCTYPE svg PUBLIC "-//W3C//DTD SVG 1.1//EN" "http://www.w3.org/Graphics/SVG/1.1/DTD/svg11.dtd">
<svg xmlns:dc="http://purl.org/dc/elements/1.1/" xmlns:xl="http://www.w3.org/1999/xlink" version="1.1" xmlns="http://www.w3.org/2000/svg" viewBox="297.67 620.5 113.85715 155.5" width="113.85715" height="155.5">
  <defs/>
  <metadata> Produced by OmniGraffle 7.8 test 
    <dc:date>2018-06-25 04:23:54 +0000</dc:date>
  </metadata>
  <g id="Canvas_1" fill-opacity="1" stroke-dasharray="none" stroke="none" stroke-opacity="1" fill="none">
    <title>Canvas 1</title>
    <g id="Canvas_1: Layer 1">
      <title>Layer 1</title>
      <g id="Graphic_197">
        <path d="M 356.8786 678.98546 C 356.9047 678.8856 356.91857 678.7812 356.91857 678.6737 L 356.91857 667.8407 L 379.22657 667.8407 C 382.9951 667.8407 386.0501 664.9473 386.0501 661.3782 L 386.0501 626.9625 C 386.0501 623.39335 382.9951 620.5 379.22657 620.5 L 329.15175 620.5 C 325.38323 620.5 322.32824 623.39335 322.32824 626.9625 L 322.32824 661.3782 C 322.32824 664.9473 325.38323 667.8407 329.15175 667.8407 L 351.45976 667.8407 L 351.45976 678.6737 C 351.45976 678.7812 351.4736 678.8856 351.49973 678.98546 L 340.84287 678.98546 C 340.08916 678.98546 339.47817 679.5641 339.47817 680.27795 C 339.47817 680.9918 340.08916 684.1192 340.84287 684.1192 L 367.53546 684.1192 C 368.28916 684.1192 368.90016 680.9918 368.90016 680.27795 C 368.90016 679.5641 368.28916 678.98546 367.53546 678.98546 Z M 354.18893 633.5016 L 354.18893 633.5016 C 359.94807 620.937 377.49926 623.3514 377.59053 638.5358 C 377.6818 646.7623 372.583 648.1493 367.1894 651.71 C 362.2531 654.9433 354.73747 661.0049 354.18893 662.8058 C 353.6404 661.0049 349.80113 656.5847 344.49927 653.35134 C 339.0144 649.9952 330.69607 647.0079 330.78734 638.5358 C 330.8786 623.4742 348.11013 620.4865 354.18893 633.5016 Z" fill="#1b215d"/>
      </g>
      <g id="Group_198">
        <title>TESTING
IDEAS
PROMPT QUALITY</title>
        <g id="Graphic_223">
          <path d="M 314.40808 689.2868 L 314.40808 692.9442 L 308.8128 692.9442 L 308.8128 709.1705 L 304.2001 709.1705 L 304.2001 692.9442 L 298.60482 692.9442 L 298.60482 689.2868 Z" fill="#7746bd"/>
        </g>
        <g id="Graphic_222">
          <path d="M 329.11957 689.2868 L 329.11957 692.835 L 320.95865 692.835 L 320.95865 697.475 L 327.209 697.475 L 327.209 700.8868 L 320.95865 700.8868 L 320.95865 705.6223 L 329.11957 705.6223 L 329.11957 709.1705 L 316.31866 709.1705 L 316.31866 689.2868 Z" fill="#7746bd"/>
        </g>
        <g id="Graphic_221">
          <path d="M 342.2592 693.3263 C 342.12884 693.5447 341.99197 693.7084 341.8486 693.8176 C 341.7052 693.9268 341.52055 693.9814 341.2946 693.9814 C 341.09474 693.9814 340.87967 693.9154 340.6494 693.7835 C 340.4191 693.6516 340.1584 693.5037 339.8673 693.33995 C 339.5762 693.1762 339.2438 693.02835 338.87013 692.8964 C 338.49647 692.7645 338.07067 692.69854 337.59272 692.69854 C 336.76718 692.69854 336.15237 692.8828 335.7483 693.25125 C 335.3442 693.6197 335.14217 694.1178 335.14217 694.7456 C 335.14217 695.1459 335.26383 695.478 335.50715 695.7418 C 335.75047 696.0057 336.0698 696.2331 336.4652 696.4242 C 336.8606 696.61524 337.31247 696.7904 337.82083 696.9496 C 338.3292 697.1088 338.8484 697.2862 339.3785 697.4818 C 339.90858 697.6774 340.4278 697.90716 340.93615 698.171 C 341.4445 698.43485 341.8964 698.7715 342.29178 699.1809 C 342.68717 699.5903 343.0065 700.0884 343.24983 700.6752 C 343.49315 701.26206 343.6148 701.9694 343.6148 702.79734 C 343.6148 703.71625 343.46274 704.576 343.1586 705.3766 C 342.85444 706.1773 342.41344 706.8755 341.83556 707.47145 C 341.25768 708.0674 340.5451 708.5359 339.69785 708.8771 C 338.85058 709.2183 337.8882 709.3889 336.81063 709.3889 C 336.2197 709.3889 335.61795 709.3252 335.0053 709.1978 C 334.39267 709.0704 333.7996 708.89074 333.22605 708.65874 C 332.6525 708.4267 332.11375 708.1515 331.60974 707.8331 C 331.10572 707.5147 330.6669 707.15985 330.2932 706.7686 L 331.5967 704.6124 C 331.6923 704.4486 331.827 704.3167 332.0008 704.2166 C 332.17458 704.11656 332.3614 704.0665 332.56128 704.0665 C 332.82198 704.0665 333.08484 704.15295 333.3499 704.3258 C 333.61493 704.4987 333.91473 704.6897 334.2493 704.899 C 334.58385 705.10824 334.96837 705.2993 335.40287 705.4722 C 335.83737 705.645 336.35006 705.73146 336.94098 705.73146 C 337.74045 705.73146 338.36177 705.5472 338.80496 705.17875 C 339.24815 704.8103 339.46974 704.2257 339.46974 703.4251 C 339.46974 702.9611 339.34808 702.58354 339.10476 702.2924 C 338.86144 702.0013 338.5421 701.7602 338.1467 701.5691 C 337.7513 701.37805 337.3016 701.2097 336.7976 701.0642 C 336.2936 700.9186 335.77654 700.7571 335.24645 700.5797 C 334.71637 700.4023 334.19932 700.1839 333.6953 699.92465 C 333.1913 699.66535 332.7416 699.3242 332.3462 698.9011 C 331.9508 698.47806 331.63146 697.9504 331.38814 697.3181 C 331.14483 696.68575 331.02317 695.9056 331.02317 694.9776 C 331.02317 694.23156 331.16655 693.5037 331.4533 692.7941 C 331.7401 692.0844 332.16154 691.4521 332.7177 690.8971 C 333.27385 690.34215 333.956 689.8986 334.76416 689.56655 C 335.57233 689.2345 336.4978 689.0684 337.5406 689.0684 C 338.1228 689.0684 338.6898 689.1162 339.24163 689.2117 C 339.79344 689.30726 340.317 689.4483 340.81232 689.6348 C 341.30765 689.8213 341.7704 690.0442 342.20053 690.3035 C 342.6307 690.5628 343.0152 690.8562 343.3541 691.1837 Z" fill="#7746bd"/>
        </g>
        <g id="Graphic_220">
          <path d="M 360.97174 689.2868 L 360.97174 692.9442 L 355.37646 692.9442 L 355.37646 709.1705 L 350.76376 709.1705 L 350.76376 692.9442 L 345.16848 692.9442 L 345.16848 689.2868 Z" fill="#7746bd"/>
        </g>
        <g id="Graphic_219">
          <rect x="363.29173" y="689.2868" width="4.6399894" height="19.88372" fill="#7746bd"/>
        </g>
        <g id="Graphic_218">
          <path d="M 373.8362 689.2868 C 374.0191 689.2868 374.1729 689.2959 374.2976 689.3141 C 374.4223 689.3323 374.53453 689.3664 374.6343 689.4164 C 374.73406 689.4665 374.82967 689.537 374.9211 689.628 C 375.01257 689.71894 375.1165 689.8418 375.2329 689.9964 L 383.8625 701.9376 C 383.82925 701.5555 383.8043 701.1847 383.7877 700.82535 C 383.77106 700.466 383.76274 700.1271 383.76274 699.80865 L 383.76274 689.2868 L 387.47897 689.2868 L 387.47897 709.1705 L 385.28415 709.1705 C 384.9599 709.1705 384.68557 709.1159 384.4611 709.0067 C 384.23662 708.8976 384.02047 708.6974 383.81263 708.4063 L 375.24535 696.56065 C 375.2703 696.9064 375.29108 697.2453 375.3077 697.57736 C 375.32433 697.9094 375.33265 698.221 375.33265 698.5122 L 375.33265 709.1705 L 371.6164 709.1705 L 371.6164 689.2868 Z" fill="#7746bd"/>
        </g>
        <g id="Graphic_217">
          <path d="M 401.0372 705.8406 C 401.6392 705.8406 402.1724 705.78604 402.6368 705.6769 C 403.10118 705.5677 403.53976 705.4221 403.95256 705.2402 L 403.95256 702.2242 L 402.095 702.2242 C 401.8198 702.2242 401.6048 702.1468 401.45 701.9922 C 401.2952 701.8375 401.2178 701.6419 401.2178 701.40535 L 401.2178 698.867 L 407.8999 698.867 L 407.8999 707.2599 C 407.4183 707.63294 406.91736 707.95364 406.39707 708.222 C 405.87677 708.4904 405.3221 708.71106 404.733 708.8839 C 404.1439 709.0568 403.5161 709.18415 402.84963 709.266 C 402.18314 709.3479 401.4672 709.3889 400.7018 709.3889 C 399.32583 709.3889 398.05306 709.1318 396.8835 708.6178 C 395.7139 708.1038 394.70127 707.3941 393.8456 706.4889 C 392.9899 705.5836 392.3191 704.51005 391.8332 703.2682 C 391.3473 702.0263 391.10437 700.6775 391.10437 699.2218 C 391.10437 697.7388 391.33657 696.3764 391.80096 695.1345 C 392.26536 693.89265 392.9297 692.8214 393.794 691.9207 C 394.65827 691.01996 395.70314 690.3194 396.92863 689.819 C 398.1541 689.3186 399.52363 689.0684 401.0372 689.0684 C 401.8198 689.0684 402.5551 689.1367 403.24307 689.2731 C 403.93106 689.4096 404.5653 689.5961 405.1458 689.8327 C 405.7263 690.0692 406.2573 690.35125 406.7389 690.6788 C 407.2205 691.0063 407.6505 691.3611 408.0289 691.74325 L 406.7647 693.7767 C 406.6443 693.9677 406.50027 694.1178 406.33257 694.227 C 406.16487 694.3362 405.98213 694.3908 405.78433 694.3908 C 405.52633 694.3908 405.25974 694.2998 404.98454 694.1178 C 404.64055 693.8995 404.3159 693.7107 404.0106 693.5515 C 403.7053 693.3923 403.39357 693.2626 403.07537 693.16254 C 402.7572 693.0625 402.4218 692.9897 402.0692 692.9442 C 401.7166 692.8987 401.321 692.87596 400.8824 692.87596 C 400.0654 692.87596 399.33014 693.02835 398.67655 693.3331 C 398.02295 693.6379 397.4661 694.0678 397.00603 694.6228 C 396.54593 695.17776 396.1912 695.8442 395.9418 696.6221 C 395.6924 697.39995 395.5677 698.2665 395.5677 699.2218 C 395.5677 700.2772 395.7053 701.2143 395.9805 702.0331 C 396.2557 702.8519 396.63623 703.5434 397.1221 704.1075 C 397.608 704.6715 398.1842 705.1014 398.8507 705.3971 C 399.5172 705.6928 400.246 705.8406 401.0372 705.8406 Z" fill="#7746bd"/>
        </g>
        <g id="Graphic_216">
          <rect x="300.5932" y="725.18905" width="6.611985" height="28.3343" fill="#7746bd"/>
        </g>
        <g id="Graphic_215">
          <path d="M 337.3732 739.3465 C 337.3732 741.3949 337.0308 743.2845 336.34597 745.0153 C 335.66115 746.7461 334.69676 748.2435 333.45277 749.5075 C 332.2088 750.7716 330.71037 751.7569 328.95748 752.4635 C 327.2046 753.1701 325.2601 753.52335 323.12396 753.52335 L 312.45587 753.52335 L 312.45587 725.18905 L 323.12396 725.18905 C 325.2601 725.18905 327.2046 725.5456 328.95748 726.2586 C 330.71037 726.9717 332.2088 727.957 333.45277 729.2146 C 334.69676 730.4722 335.66115 731.9663 336.34597 733.6971 C 337.0308 735.4279 337.3732 737.311 337.3732 739.3465 Z M 330.85172 739.3465 C 330.85172 737.9463 330.6758 736.6822 330.32397 735.5543 C 329.97214 734.4264 329.4664 733.4702 328.8067 732.6859 C 328.147 731.9015 327.33968 731.29865 326.3847 730.8773 C 325.4297 730.4559 324.3428 730.2453 323.12396 730.2453 L 318.86426 730.2453 L 318.86426 748.4671 L 323.12396 748.4671 C 324.3428 748.4671 325.4297 748.25645 326.3847 747.8351 C 327.33968 747.4137 328.147 746.8109 328.8067 746.0265 C 329.4664 745.24215 329.97214 744.286 330.32397 743.1581 C 330.6758 742.03015 330.85172 740.7596 330.85172 739.3465 Z" fill="#7746bd"/>
        </g>
        <g id="Graphic_214">
          <path d="M 359.55654 725.18905 L 359.55654 730.2453 L 347.92723 730.2453 L 347.92723 736.85725 L 356.83396 736.85725 L 356.83396 741.719 L 347.92723 741.719 L 347.92723 748.4671 L 359.55654 748.4671 L 359.55654 753.52335 L 341.31524 753.52335 L 341.31524 725.18905 Z" fill="#7746bd"/>
        </g>
        <g id="Graphic_213">
          <path d="M 389.6605 753.52335 L 384.5654 753.52335 C 383.99495 753.52335 383.525 753.3905 383.1555 753.1247 C 382.786 752.8589 382.52995 752.5186 382.38734 752.1037 L 380.7149 747.1642 L 369.94125 747.1642 L 368.2688 752.1037 C 368.13916 752.4667 367.88635 752.7941 367.51037 753.0858 C 367.1344 753.3775 366.67415 753.52335 366.12963 753.52335 L 360.9956 753.52335 L 371.96374 725.18905 L 378.6924 725.18905 Z M 371.4581 742.6914 L 379.19802 742.6914 L 376.59212 734.932 C 376.4236 734.4393 376.22587 733.8592 375.999 733.1915 C 375.7721 732.5238 375.54847 731.801 375.32807 731.02315 C 375.12063 731.814 374.9067 732.5465 374.6863 733.2207 C 374.4659 733.8948 374.2585 734.4782 374.064 734.9709 Z" fill="#7746bd"/>
        </g>
        <g id="Graphic_212">
          <path d="M 406.9454 730.9454 C 406.75964 731.2565 406.5646 731.4899 406.3603 731.64545 C 406.15597 731.801 405.89283 731.8788 405.57087 731.8788 C 405.28605 731.8788 404.97958 731.7848 404.6514 731.5968 C 404.32327 731.40885 403.9518 731.1982 403.53694 730.9648 C 403.1221 730.73144 402.64846 730.5208 402.116 730.3328 C 401.5835 730.1448 400.97675 730.0508 400.29567 730.0508 C 399.11927 730.0508 398.2432 730.3133 397.66736 730.8384 C 397.09155 731.3635 396.80364 732.0733 396.80364 732.96785 C 396.80364 733.5383 396.977 734.0115 397.32373 734.3875 C 397.67046 734.7635 398.12553 735.0876 398.68897 735.3598 C 399.2524 735.6321 399.8963 735.8817 400.62073 736.10854 C 401.34514 736.3354 402.08502 736.5882 402.8404 736.867 C 403.59577 737.1457 404.33565 737.4731 405.06006 737.84905 C 405.7845 738.225 406.4284 738.7047 406.99182 739.2881 C 407.55526 739.87154 408.01033 740.58135 408.35706 741.4176 C 408.7038 742.2538 408.87715 743.2618 408.87715 744.4416 C 408.87715 745.751 408.66045 746.9762 408.22704 748.1171 C 407.79363 749.258 407.1652 750.253 406.3417 751.1022 C 405.51823 751.9514 404.50283 752.6191 403.29547 753.1052 C 402.0881 753.5914 400.7167 753.8345 399.1812 753.8345 C 398.33914 753.8345 397.4816 753.74375 396.6086 753.5622 C 395.7356 753.3807 394.89046 753.1247 394.07317 752.7941 C 393.2559 752.4635 392.48814 752.0713 391.7699 751.6175 C 391.0517 751.1638 390.42636 750.65816 389.8939 750.1007 L 391.75135 747.028 C 391.88756 746.7947 392.0795 746.6067 392.32716 746.4641 C 392.5748 746.3215 392.84106 746.2502 393.12587 746.2502 C 393.49736 746.2502 393.87195 746.3733 394.24963 746.6197 C 394.6273 746.866 395.05453 747.1382 395.5313 747.4364 C 396.00803 747.7346 396.556 748.0069 397.17514 748.2532 C 397.7943 748.4995 398.5249 748.6227 399.36694 748.6227 C 400.5062 748.6227 401.39157 748.3602 402.0231 747.8351 C 402.65465 747.31 402.9704 746.47705 402.9704 745.33615 C 402.9704 744.67495 402.79706 744.1369 402.45033 743.72205 C 402.1036 743.3072 401.64853 742.9636 401.0851 742.6914 C 400.52166 742.4191 399.88084 742.17926 399.1626 741.9718 C 398.4444 741.7644 397.7076 741.5343 396.95224 741.28145 C 396.19687 741.0286 395.4601 740.7175 394.74186 740.348 C 394.02364 739.9785 393.3828 739.4923 392.8194 738.8895 C 392.25595 738.2866 391.8009 737.5347 391.45415 736.6336 C 391.1074 735.7326 390.93406 734.62085 390.93406 733.29845 C 390.93406 732.2353 391.1384 731.1982 391.54702 730.1869 C 391.95567 729.1757 392.55624 728.2746 393.34876 727.4838 C 394.1413 726.69294 395.11335 726.0609 396.265 725.5877 C 397.4166 725.1145 398.7354 724.8779 400.22137 724.8779 C 401.05104 724.8779 401.85903 724.946 402.64536 725.0821 C 403.4317 725.2182 404.17777 725.4192 404.8836 725.68494 C 405.58944 725.9507 406.24884 726.26835 406.8618 726.63785 C 407.47477 727.00734 408.0227 727.42545 408.50566 727.8922 Z" fill="#7746bd"/>
        </g>
        <g id="Graphic_211">
          <path d="M 299.02808 774.6762 L 297.67 774.6762 L 297.67 765.5737 L 300.92938 765.5737 C 301.87592 765.5737 302.60434 765.817 303.11465 766.3038 C 303.62496 766.7905 303.8801 767.507 303.8801 768.4532 C 303.8801 769.3994 303.6229 770.1295 303.10848 770.6435 C 302.59405 771.1576 301.8677 771.4146 300.92938 771.4146 L 299.02808 771.4146 Z M 300.75654 770.1318 C 301.40677 770.1318 301.8533 769.9839 302.0961 769.68825 C 302.3389 769.3926 302.4603 768.9991 302.4603 768.5078 C 302.4603 767.9983 302.3389 767.5934 302.0961 767.2932 C 301.8533 766.993 301.40677 766.8428 300.75654 766.8428 L 299.02808 766.8428 L 299.02808 770.1318 Z" fill="#1b215d"/>
        </g>
        <g id="Graphic_210">
          <path d="M 311.4921 774.6762 L 309.51576 771.2372 L 307.72944 771.2372 L 307.72944 774.6762 L 306.33586 774.6762 L 306.33586 765.5737 L 310.08586 765.5737 C 310.9727 765.5737 311.65047 765.8034 312.11922 766.26285 C 312.58797 766.7223 312.82235 767.4069 312.82235 768.3167 C 312.82235 768.9718 312.65554 769.54495 312.32192 770.03625 C 311.9883 770.5275 311.53857 770.8414 310.9727 770.9779 L 313.22775 774.6762 Z M 307.72944 770.009 L 309.69312 770.009 C 310.25056 770.009 310.6665 769.877 310.941 769.6132 C 311.2155 769.34935 311.35275 768.949 311.35275 768.41225 C 311.35275 767.8937 311.24084 767.50245 311.01703 767.2386 C 310.7932 766.9748 310.42792 766.8428 309.92116 766.8428 L 307.72944 766.8428 Z" fill="#1b215d"/>
        </g>
        <g id="Graphic_209">
          <path d="M 318.58575 774.84 C 317.32835 774.84 316.36437 774.4442 315.69375 773.6527 C 315.02314 772.8612 314.68784 771.68755 314.68784 770.1318 C 314.68784 768.5851 315.01895 767.41375 315.68118 766.6177 C 316.3434 765.8216 317.3116 765.42355 318.58575 765.42355 C 319.85153 765.42355 320.8197 765.817 321.49032 766.604 C 322.16093 767.391 322.49623 768.5669 322.49623 770.1318 C 322.49623 771.67845 322.16303 772.8498 321.4966 773.6459 C 320.8302 774.442 319.8599 774.84 318.58575 774.84 Z M 318.58575 773.5299 C 319.44078 773.5299 320.06737 773.2592 320.46555 772.7179 C 320.86372 772.1766 321.0628 771.31 321.0628 770.1181 C 321.0628 768.9354 320.86163 768.0756 320.45926 767.5388 C 320.0569 767.0021 319.4324 766.7337 318.58575 766.7337 C 317.7391 766.7337 317.1146 767.0021 316.71224 767.5388 C 316.30987 768.0756 316.1087 768.9399 316.1087 770.1318 C 316.1087 771.3236 316.30987 772.1879 316.71224 772.7247 C 317.1146 773.2615 317.7391 773.5299 318.58575 773.5299 Z" fill="#1b215d"/>
        </g>
        <g id="Graphic_208">
          <path d="M 333.87556 765.5737 L 333.87556 774.6762 L 332.3744 774.6762 L 332.3744 767.7299 L 329.3311 771.9332 L 326.4243 767.7572 L 326.4243 774.6762 L 324.96406 774.6762 L 324.96406 765.5737 L 326.53346 765.5737 L 329.39934 769.80425 L 332.33345 765.5737 Z" fill="#1b215d"/>
        </g>
        <g id="Graphic_207">
          <path d="M 337.38987 774.6762 L 336.0318 774.6762 L 336.0318 765.5737 L 339.29118 765.5737 C 340.2377 765.5737 340.96613 765.817 341.47644 766.3038 C 341.98675 766.7905 342.2419 767.507 342.2419 768.4532 C 342.2419 769.3994 341.9847 770.1295 341.47027 770.6435 C 340.95584 771.1576 340.2295 771.4146 339.29118 771.4146 L 337.38987 771.4146 Z M 339.11833 770.1318 C 339.76856 770.1318 340.21508 769.9839 340.4579 769.68825 C 340.7007 769.3926 340.8221 768.9991 340.8221 768.5078 C 340.8221 767.9983 340.7007 767.5934 340.4579 767.2932 C 340.21508 766.993 339.76856 766.8428 339.11833 766.8428 L 337.38987 766.8428 L 337.38987 770.1318 Z" fill="#1b215d"/>
        </g>
        <g id="Graphic_206">
          <path d="M 346.8539 766.8428 L 343.91978 766.8428 L 343.91978 765.5737 L 351.3028 765.5737 L 351.3028 766.8428 L 348.35506 766.8428 L 348.35506 774.6762 L 346.8539 774.6762 Z" fill="#1b215d"/>
        </g>
        <g id="Graphic_205">
          <path d="M 362.40103 774.2668 C 362.63574 774.7126 362.90818 774.9355 363.21833 774.9355 C 363.35246 774.9355 363.474 774.9173 363.58298 774.8809 C 363.69195 774.84455 363.83026 774.7718 363.9979 774.6626 L 363.9979 775.7407 C 363.70452 775.9136 363.3734 776 363.00458 776 C 362.63574 776 362.29625 775.89765 361.9861 775.6929 C 361.67593 775.4882 361.42446 775.1766 361.23166 774.7581 C 360.89635 774.84 360.51914 774.8809 360.1 774.8809 C 357.5014 774.8809 356.2021 773.2979 356.2021 770.1318 C 356.2021 766.96565 357.5014 765.3826 360.1 765.3826 C 362.707 765.3826 364.0105 766.96565 364.0105 770.1318 C 364.0105 772.16065 363.474 773.539 362.40103 774.2668 Z M 360.1 766.6518 C 359.25336 766.6518 358.62886 766.9247 358.2265 767.4706 C 357.82413 768.0165 357.62295 768.9035 357.62295 770.1318 C 357.62295 771.3782 357.81994 772.2835 358.21392 772.8475 L 358.21392 772.2198 C 358.38158 772.0196 358.6016 771.8445 358.87405 771.6944 C 359.1465 771.5442 359.45874 771.4692 359.8108 771.4692 C 360.2467 771.4692 360.6386 771.6034 360.98647 771.8718 C 361.33435 772.1402 361.62564 772.5155 361.86035 772.9977 C 362.10345 772.7156 362.28367 772.3403 362.40103 771.8718 C 362.5184 771.4032 362.57706 770.8187 362.57706 770.1181 C 362.57706 768.899 362.378 768.0165 361.9798 767.4706 C 361.58163 766.9247 360.95504 766.6518 360.1 766.6518 Z M 358.44025 773.1205 C 358.82586 773.5026 359.3791 773.69365 360.1 773.69365 C 360.35987 773.6755 360.5904 773.6482 360.79157 773.6118 C 360.4898 772.9385 360.09163 772.6019 359.59705 772.6019 C 359.16954 772.6019 358.78394 772.77475 358.44025 773.1205 Z" fill="#1b215d"/>
        </g>
        <g id="Graphic_204">
          <path d="M 369.82995 774.8809 C 368.74057 774.8809 367.9096 774.5625 367.3371 773.92565 C 366.76457 773.2888 366.4783 772.34715 366.4783 771.1007 L 366.4783 765.5737 L 367.82613 765.5737 L 367.82613 771.0871 C 367.82613 771.9423 367.98913 772.5769 368.31515 772.9908 C 368.64118 773.4048 369.1302 773.6118 369.78224 773.6118 C 371.0943 773.6118 371.7503 772.7702 371.7503 771.0871 L 371.7503 765.5737 L 373.0146 765.5737 L 373.0146 771.1007 C 373.0146 772.329 372.73233 773.266 372.16775 773.912 C 371.6032 774.558 370.8239 774.8809 369.82995 774.8809 Z" fill="#1b215d"/>
        </g>
        <g id="Graphic_203">
          <path d="M 381.38087 772.2061 L 377.65523 772.2061 L 376.76817 774.6762 L 375.267 774.6762 L 378.81523 765.5737 L 380.41193 765.5737 L 383.86463 774.6762 L 382.28157 774.6762 Z M 380.9305 770.9779 L 379.51122 767.0748 L 378.1056 770.9779 Z" fill="#1b215d"/>
        </g>
        <g id="Graphic_202">
          <path d="M 385.17474 765.5737 L 386.68956 765.5737 L 386.68956 773.3934 L 391.04296 773.3934 L 391.04296 774.6762 L 385.17474 774.6762 Z" fill="#1b215d"/>
        </g>
        <g id="Graphic_201">
          <rect x="392.5032" y="765.5737" width="1.51482" height="9.102567" fill="#1b215d"/>
        </g>
        <g id="Graphic_200">
          <path d="M 398.33048 766.8428 L 395.39636 766.8428 L 395.39636 765.5737 L 402.7794 765.5737 L 402.7794 766.8428 L 399.83165 766.8428 L 399.83165 774.6762 L 398.33048 774.6762 Z" fill="#1b215d"/>
        </g>
        <g id="Graphic_199">
          <path d="M 408.22457 770.6094 L 408.22457 774.6762 L 406.7234 774.6762 L 406.7234 770.5958 L 403.298 765.5737 L 405.14034 765.5737 L 407.5695 769.3539 L 409.90315 765.5737 L 411.52715 765.5737 Z" fill="#1b215d"/>
        </g>
      </g>
    </g>
  </g>
</svg>
